<?xml version="1.0" encoding="utf-8"?>
<!-- Generator: Adobe Illustrator 19.0.0, SVG Export Plug-In . SVG Version: 6.00 Build 0)  -->
<svg version="1.1" id="Layer_1" xmlns="http://www.w3.org/2000/svg" xmlns:xlink="http://www.w3.org/1999/xlink" x="0px" y="0px"
	 viewBox="0 0 800 800" style="enable-background:new 0 0 800 800;" xml:space="preserve">
<style type="text/css">
	.st0{fill:#141414;}
	.st1{fill:#BC0000;}
	.st2{fill:#FFFFFF;}
	.st3{stroke:#000000;stroke-width:0.25;}
	.st4{fill:none;stroke:#FFFFFF;}
	.st5{fill:#009640;stroke:#FFFFFF;stroke-width:0.75;stroke-linecap:round;stroke-linejoin:round;}
	.st6{fill:#009640;stroke:#FFFFFF;stroke-width:0.75;}
	.st7{fill:#FFEBAD;stroke:#FFFFFF;stroke-width:0.75;}
	.st8{fill:#E30613;stroke:#FFFFFF;stroke-width:0.75;stroke-linecap:round;stroke-linejoin:round;}
	.st9{fill:#E30613;stroke:#FFFFFF;stroke-width:0.75;}
	.st10{fill:none;}
	.st11{enable-background:new    ;}
	.st12{fill:#A1A1A1;}
</style>
<path id="XMLID_1_" class="st0" d="M400.3,791.8c-0.8,0-1.5,0-2.3-0.1c-9.2-0.6-18-4.6-24.8-11.4L352,759
	c-18.1-18.1-36-36.1-53.9-54c-17.1-17.1-34.3-34.2-51.4-51.3l-0.1-0.1c-43.1-42.9-87.6-87.3-130.9-131.5
	C101.3,507.5,91.1,491,85.1,473l-46.7,8.9v-186c-0.5,0-17.3,1.1-17.3,1.1v-92.6l13.9-0.9c18.6-1.2,37.6-2.3,56.7-3.3
	c5.7-12.8,13.4-25.2,23.4-37.7c22.6-28.5,51.8-51.3,86.7-67.8C241,76,281.1,57.8,319.8,40.2c19.9-9.1,40.4-18.4,60.4-27.6
	c6.6-3,13.3-4.6,20.1-4.6c6.9,0,13.5,1.5,20.2,4.6c27.3,12.5,54.7,25,82.1,37.4l0.8,0.4c26.5,12.1,53.1,24.2,79.6,36.3
	c34.6,15.8,62.2,34,84.6,55.8c19.1,18.5,32.8,37.5,41.7,57.8c19,1,38,2.1,56.6,3.3l13.9,0.9V297c0,0-16.8-1.1-17.3-1.1V482
	l-46.8-9.3c-1.1,2.9-2.3,5.8-3.7,8.6c-9.3,19.2-20.1,34.9-33.2,47.9c-64.8,64.5-130.6,130.4-194.3,194.1
	c-19.1,19.1-38.3,38.3-57.4,57.5C419.9,787.8,410.4,791.8,400.3,791.8z"/>
<path id="XMLID_2_" class="st1" d="M231.3,403.8c25.1-4.8,50.4-8.5,75.7-11.2l-193.3,36.7c-0.2-1-0.5-2-0.7-3L231.3,403.8z"/>
<g id="XMLID_3_">
	<path id="XMLID_62_" class="st2" d="M367.4,688.8l-2.8,0l-0.1-13.8l4.2,0c1.4,0,2.4,0.6,3.1,1.7c0.7,1.1,1,2.9,1.1,5.2l0,6.9
		l-2.8,0l0-6.9c0-1.4-0.1-2.4-0.4-3.1c-0.2-0.7-0.6-1-1.1-1l-1.4,0L367.4,688.8z"/>
	<path id="XMLID_111_" class="st2" d="M380.5,688.8l0-2.8l2.8,0l0,2.8L380.5,688.8z"/>
	<path id="XMLID_113_" class="st2" d="M397.8,688.7l-2.8,0c-1.4,0-2.4-0.6-3.1-1.7c-0.7-1.1-1-2.9-1-5.2s0.3-4.1,1-5.2
		c0.7-1.1,1.7-1.7,3.1-1.7c1.4,0,2.4,0.6,3.1,1.7c0.7,1.1,1,2.9,1,5.2l0,1.4l-5.5,0c0,0.5,0.1,1.1,0.3,1.7c0.2,0.7,0.6,1,1.1,1
		l2.8,0L397.8,688.7z M393.7,680.4l2.8,0c0-0.5-0.1-1.1-0.3-1.7c-0.2-0.7-0.6-1-1.1-1c-0.5,0-0.8,0.3-1.1,1
		C393.8,679.4,393.7,680,393.7,680.4z"/>
	<path id="XMLID_116_" class="st2" d="M406.8,688.7l0-2.8l2.8,0l0,2.8L406.8,688.7z"/>
	<path id="XMLID_118_" class="st2" d="M416.5,669.4l2.8,0l2.1,12.5l2.2-12.5l2.8,0l-3.6,19.4l-2.8,0L416.5,669.4z"/>
	<path id="XMLID_120_" class="st2" d="M433.1,688.8l0-2.8l2.8,0l0,2.8L433.1,688.8z"/>
</g>
<path id="XMLID_5_" class="st2" d="M485.5,493.8"/>
<path id="XMLID_6_" class="st1" d="M398.9,387.5L398.9,387.5c-30.7,0.2-61.3,1.9-91.8,5.1l37.4-7.1L398.9,387.5z"/>
<g id="XMLID_11_">
	<path id="XMLID_12_" class="st1" d="M111.4,269.2c0.1-6.3,0.3-12.6,0.7-18.9c1.6-25.7,12.6-47.8,28.4-67.7
		c20.4-25.6,46.1-44.9,75.3-58.7c59-28,118.7-54.6,178-81.9c4.7-2.2,8.7-2.1,13.3,0c54.1,24.8,108.3,49.3,162.5,74.1
		c27.7,12.7,53.5,28.2,75.5,49.6c22.9,22.3,39.9,48.1,43.6,80.5c1,8.4,1.1,17,1,25.5l17.5,1.2c0.1-9.4,0-19-1.1-28.7
		c-3.7-33.1-19.7-62.9-48.8-91.1c-21.1-20.5-47.5-37.8-80.5-52.9c-26.8-12.2-53.6-24.4-80.4-36.6C469.1,51,441.7,38.6,414.3,26
		c-4.7-2.2-9.3-3.2-14-3.2c-4.6,0-9.3,1.1-13.9,3.2c-20.1,9.3-40.6,18.6-60.5,27.6c-38.7,17.6-78.6,35.8-117.8,54.4
		c-32.9,15.6-60.3,37-81.5,63.7c-20,25.1-30.5,50.5-32.2,77.5c-0.4,6.8-0.6,13.5-0.7,20.3L111.4,269.2z"/>
	<path id="XMLID_13_" class="st1" d="M707,346c0-15.7,0-31.5,0-47.2l-17.5-0.3c0,46.3-0.1,92.6,0.1,138.9c0,10.6-2.2,20.4-6.7,29.8
		c-7,14.4-15.4,27.6-26.9,39c-65.4,65.1-130.7,130.4-196.2,196c-32.8,32.8-86,32.8-118.8,0c-6.7-6.7-13.3-13.4-20-20
		c-60.8-60.8-122-121.2-182.2-182.7c-17.2-17.5-27.6-39.5-27.5-65.3c0.2-44,0-88,0.1-132.1c0-3.3,0-6.6,0-10l-2.3,0l-15.2,1.1
		c0,2.9,0,5.9,0,8.8c0,18.2,0,36.4,0,54.6c0,25.4,0,51.6-0.1,77.4c-0.1,28.9,11.1,55.7,32.5,77.6c43.3,44.2,87.7,88.5,130.8,131.4
		c17.2,17.1,34.4,34.3,51.5,51.4c18,18,35.9,35.9,53.9,54l21.2,21.3c4.1,4.1,9.4,6.7,15.2,7.1c6.6,0.4,13-2,17.6-6.7
		c19.2-19.2,38.3-38.3,57.4-57.5c63.7-63.7,129.6-129.6,194.4-194.1c11.9-11.8,21.8-26.2,30.4-43.8c5.7-11.7,8.5-24.4,8.5-37.5
		C707,406.9,707,375.9,707,346z"/>
</g>
<g id="Hintergrund_Scheibe_4_">
	<circle id="Scheibe_4_" class="st3" cx="398.9" cy="358" r="264.2"/>
</g>
<g id="Strahlen_4_">
	<circle id="XMLID_708_" class="st4" cx="398.9" cy="358" r="253.8"/>
	<line id="XMLID_707_" class="st4" x1="365.5" y1="146.9" x2="398.9" y2="357.9"/>
	<line id="XMLID_706_" class="st4" x1="301.9" y1="167.6" x2="398.9" y2="357.9"/>
	<line id="XMLID_705_" class="st4" x1="247.8" y1="206.9" x2="398.9" y2="358"/>
	<line id="XMLID_704_" class="st4" x1="208.6" y1="261" x2="398.9" y2="358"/>
	<line id="XMLID_703_" class="st4" x1="187.9" y1="324.6" x2="398.9" y2="358"/>
	<line id="XMLID_702_" class="st4" x1="432.3" y1="146.8" x2="398.9" y2="357.8"/>
	<line id="XMLID_701_" class="st4" x1="495.9" y1="167.4" x2="398.9" y2="357.8"/>
	<line id="XMLID_700_" class="st4" x1="549.9" y1="206.8" x2="398.9" y2="357.9"/>
	<line id="XMLID_699_" class="st4" x1="589.2" y1="260.9" x2="398.9" y2="357.9"/>
	<line id="XMLID_698_" class="st4" x1="609.8" y1="324.5" x2="398.9" y2="357.9"/>
	<line id="XMLID_697_" class="st4" x1="365.5" y1="568.9" x2="398.9" y2="358"/>
	<line id="XMLID_696_" class="st4" x1="301.9" y1="548.3" x2="398.9" y2="358"/>
	<line id="XMLID_695_" class="st4" x1="247.8" y1="508.9" x2="398.9" y2="357.9"/>
	<line id="XMLID_694_" class="st4" x1="208.6" y1="454.8" x2="398.9" y2="357.9"/>
	<line id="XMLID_693_" class="st4" x1="187.9" y1="391.3" x2="398.9" y2="357.9"/>
	<line id="XMLID_692_" class="st4" x1="432.3" y1="569" x2="398.9" y2="358.1"/>
	<line id="XMLID_691_" class="st4" x1="495.9" y1="548.4" x2="398.9" y2="358.1"/>
	<line id="XMLID_690_" class="st4" x1="549.9" y1="509" x2="398.9" y2="358"/>
	<line id="XMLID_689_" class="st4" x1="589.2" y1="454.9" x2="398.9" y2="358"/>
	<line id="XMLID_688_" class="st4" x1="609.8" y1="391.4" x2="398.9" y2="358"/>
</g>
<g id="Felder_grün_4_">
	<circle id="XMLID_687_" class="st5" cx="398.9" cy="358" r="20"/>
	<path id="XMLID_686_" class="st6" d="M320.4,436.3l-9.4,9.4c-9.2-9.2-16.9-19.8-22.9-31.5l11.9-6.1
		C305.3,418.6,312.3,428.1,320.4,436.3z"/>
	<path id="XMLID_685_" class="st6" d="M257.2,216.3l9.4,9.4c-13.8,13.8-25.5,29.8-34.4,47.3l-11.9-6.1
		C229.9,248.2,242.4,231.1,257.2,216.3z"/>
	<path id="XMLID_684_" class="st6" d="M381.5,467.5l-2.1,13.2c-13.1-2.1-25.6-6.2-37-12l6.1-11.9C358.7,462,369.8,465.6,381.5,467.5
		z"/>
	<path id="XMLID_683_" class="st6" d="M379.5,235.3l2.1,13.2c-11.7,1.8-22.8,5.5-33,10.7l-6.1-11.9
		C353.9,241.4,366.3,237.3,379.5,235.3z"/>
	<path id="XMLID_682_" class="st6" d="M509.5,301.5l-11.9,6.1c-5.3-10.4-12.2-19.9-20.4-28l9.4-9.4
		C495.8,279.2,503.6,289.8,509.5,301.5z"/>
	<path id="XMLID_681_" class="st6" d="M449.2,456.8l6.1,11.9c-11.4,5.8-23.8,9.9-36.9,12l-2.1-13.2C427.9,465.7,439,462,449.2,456.8
		z"/>
	<path id="XMLID_680_" class="st6" d="M311,270.1l9.4,9.4c-8.2,8.2-15.1,17.6-20.4,28.1l-11.9-6.1
		C294.1,289.9,301.9,279.3,311,270.1z"/>
	<path id="XMLID_679_" class="st6" d="M455.2,247.2l-6.1,11.9c-10.2-5.2-21.3-8.8-32.9-10.7l2.1-13.2
		C431.4,237.3,443.8,241.4,455.2,247.2z"/>
	<path id="XMLID_678_" class="st6" d="M521.6,338.4c1,6.4,1.5,12.9,1.5,19.5c0,6.6-0.5,13.1-1.5,19.4l-13.2-2.1
		c0.9-5.7,1.4-11.5,1.4-17.3c0-5.9-0.5-11.8-1.4-17.4L521.6,338.4z"/>
	<path id="XMLID_677_" class="st6" d="M369.6,542.7l-2.1,13.2c-21.2-3.3-41.2-10-59.6-19.4l6.1-11.9
		C331.2,533.4,349.9,539.6,369.6,542.7z"/>
	<path id="XMLID_676_" class="st6" d="M367.5,160.1l2.1,13.2c-19.7,3.1-38.5,9.3-55.6,18l-6.1-11.9
		C326.3,170,346.4,163.4,367.5,160.1z"/>
	<path id="XMLID_675_" class="st6" d="M577.4,266.9l-11.9,6.1c-9-17.5-20.6-33.5-34.4-47.3l9.4-9.4
		C555.3,231,567.8,248.1,577.4,266.9z"/>
	<path id="XMLID_674_" class="st6" d="M596.8,326.5c1.6,10.2,2.5,20.8,2.5,31.4c0,10.7-0.8,21.1-2.4,31.4l-13.2-2.1
		c1.5-9.5,2.3-19.3,2.3-29.3c0-10-0.8-19.8-2.3-29.4L596.8,326.5z"/>
	<path id="XMLID_673_" class="st6" d="M497.7,408.3l11.9,6.1c-6,11.7-13.7,22.3-22.9,31.4l-9.4-9.4
		C485.5,428.2,492.4,418.7,497.7,408.3z"/>
	<path id="XMLID_672_" class="st6" d="M266.6,490.1l-9.4,9.4c-14.8-14.8-27.3-31.9-36.9-50.7l11.9-6.1
		C241.1,460.4,252.8,476.3,266.6,490.1z"/>
	<path id="XMLID_671_" class="st6" d="M276.2,338.5l13.2,2.1c-0.9,5.6-1.4,11.4-1.4,17.3c0,5.9,0.5,11.6,1.3,17.2l-13.2,2.1
		c-1-6.3-1.5-12.8-1.5-19.3C274.7,351.4,275.2,344.9,276.2,338.5z"/>
	<path id="XMLID_670_" class="st6" d="M201,326.6l13.2,2.1c-1.5,9.5-2.3,19.3-2.3,29.2c0,9.9,0.8,19.6,2.3,29.1l-13.2,2.1
		c-1.6-10.2-2.4-20.6-2.4-31.2C198.5,347.3,199.4,336.8,201,326.6z"/>
	<path id="XMLID_669_" class="st6" d="M489.8,179.4l-6.1,11.9c-17.2-8.8-35.9-14.9-55.6-18l2.1-13.2
		C451.3,163.4,471.4,170,489.8,179.4z"/>
	<path id="XMLID_668_" class="st6" d="M483.7,524.6l6.1,11.9c-18.4,9.4-38.5,16-59.6,19.3l-2.1-13.2
		C447.8,539.6,466.6,533.4,483.7,524.6z"/>
	<path id="XMLID_667_" class="st6" d="M565.5,442.9l11.9,6.1c-9.6,18.8-22.1,35.9-36.9,50.7l-9.4-9.4
		C544.9,476.4,556.6,460.4,565.5,442.9z"/>
</g>
<g id="Felder_gelb_4_">
	<path id="XMLID_666_" class="st7" d="M455.2,468.7l28.5,56c-17.2,8.8-35.9,15-55.6,18l-9.8-62C431.4,478.6,443.8,474.5,455.2,468.7
		z"/>
	<path id="XMLID_665_" class="st7" d="M214.2,328.7l62,9.8c-1,6.3-1.5,12.8-1.5,19.4c0,6.6,0.5,13,1.5,19.3l-62,9.8
		c-1.5-9.5-2.3-19.2-2.3-29.1C211.9,348,212.7,338.3,214.2,328.7z"/>
	<path id="XMLID_664_" class="st7" d="M369.6,173.3l9.8,62c-13.1,2.1-25.5,6.2-36.9,12L314,191.3
		C331.2,182.5,349.9,176.3,369.6,173.3z"/>
	<path id="XMLID_663_" class="st7" d="M449.1,259.1l-41.2,81c-1.8-0.9-3.8-1.6-5.9-1.9l14.2-89.7C427.9,250.3,439,253.9,449.1,259.1
		z"/>
	<path id="XMLID_662_" class="st7" d="M384.7,372.1l-64.2,64.2c-8.2-8.2-15.1-17.7-20.4-28.1L381,367
		C381.9,368.9,383.2,370.6,384.7,372.1z"/>
	<path id="XMLID_661_" class="st7" d="M379.4,480.7l-9.8,62c-19.8-3.1-38.5-9.3-55.7-18.1l28.5-56
		C353.9,474.5,366.3,478.6,379.4,480.7z"/>
	<path id="XMLID_660_" class="st7" d="M289.4,340.6l89.7,14.2c-0.2,1-0.2,2.1-0.2,3.1c0,1,0.1,2,0.2,3l-89.7,14.2
		c-0.9-5.6-1.3-11.4-1.3-17.2C288,352.1,288.5,346.3,289.4,340.6z"/>
	<path id="XMLID_659_" class="st7" d="M509.6,414.4l56,28.5c-9,17.6-20.6,33.5-34.4,47.3l-44.4-44.4
		C495.9,436.6,503.6,426,509.6,414.4z"/>
	<path id="XMLID_658_" class="st7" d="M381.6,248.5l14.2,89.7c-2.1,0.3-4.1,1-5.9,1.9l-41.3-81C358.8,254,369.9,250.3,381.6,248.5z"
		/>
	<path id="XMLID_657_" class="st7" d="M407.9,375.8l41.2,81c-10.2,5.2-21.3,8.8-33,10.7L402,377.8
		C404.1,377.4,406.1,376.8,407.9,375.8z"/>
	<path id="XMLID_656_" class="st7" d="M508.4,340.5c0.9,5.7,1.4,11.5,1.4,17.4c0,5.9-0.5,11.7-1.4,17.3l-89.7-14.2
		c0.2-1,0.2-2.1,0.2-3.1c0-1.1-0.1-2.2-0.3-3.2L508.4,340.5z"/>
	<path id="XMLID_655_" class="st7" d="M320.5,279.6l64.2,64.2c-1.5,1.5-2.7,3.2-3.7,5.1l-81-41.3
		C305.4,297.2,312.3,287.8,320.5,279.6z"/>
	<path id="XMLID_654_" class="st7" d="M311,445.7l-44.4,44.4c-13.8-13.8-25.5-29.8-34.4-47.4l56-28.5
		C294.1,426,301.8,436.6,311,445.7z"/>
	<path id="XMLID_653_" class="st7" d="M395.7,377.8l-14.2,89.7c-11.7-1.8-22.8-5.5-33-10.7l41.2-81
		C391.6,376.8,393.6,377.4,395.7,377.8z"/>
	<path id="XMLID_652_" class="st7" d="M266.7,225.7l44.4,44.4c-9.2,9.2-16.9,19.8-22.9,31.4l-55.9-28.5
		C241.2,255.5,252.8,239.5,266.7,225.7z"/>
	<path id="XMLID_651_" class="st7" d="M583.6,328.6c1.5,9.6,2.3,19.4,2.3,29.4c0,10-0.8,19.7-2.3,29.3l-62-9.8
		c1-6.3,1.5-12.8,1.5-19.4c0-6.6-0.5-13.2-1.5-19.5L583.6,328.6z"/>
	<path id="XMLID_650_" class="st7" d="M497.6,307.6l-81,41.2c-1-1.9-2.2-3.6-3.7-5l64.2-64.2C485.4,287.7,492.3,297.1,497.6,307.6z"
		/>
	<path id="XMLID_649_" class="st7" d="M416.7,367.1l81,41.2c-5.3,10.4-12.2,19.9-20.4,28L413,372.1
		C414.5,370.7,415.8,368.9,416.7,367.1z"/>
	<path id="XMLID_648_" class="st7" d="M565.5,273l-55.9,28.5c-6-11.7-13.7-22.2-22.9-31.4l44.4-44.4
		C544.9,239.5,556.5,255.4,565.5,273z"/>
	<path id="XMLID_647_" class="st7" d="M483.7,191.3l-28.5,56c-11.4-5.8-23.8-9.9-36.9-12l9.8-62
		C447.8,176.3,466.5,182.5,483.7,191.3z"/>
</g>
<g id="Felder_rot_5_">
	<path id="XMLID_646_" class="st8" d="M405.6,358c0,3.7-3,6.7-6.7,6.7c-3.7,0-6.7-3-6.7-6.7c0-3.7,3-6.7,6.7-6.7
		C402.6,351.3,405.6,354.3,405.6,358z"/>
	<path id="XMLID_645_" class="st9" d="M314,524.6l-6.1,11.9c-18.8-9.6-35.9-22.1-50.7-36.9l9.4-9.4C280.4,504,296.4,515.6,314,524.6
		z"/>
	<path id="XMLID_644_" class="st9" d="M288.2,301.6l11.9,6.1c-5.2,10.2-8.9,21.3-10.7,33l-13.2-2.1
		C278.2,325.4,282.3,313,288.2,301.6z"/>
	<path id="XMLID_643_" class="st9" d="M342.5,247.2l6.1,11.9c-10.4,5.3-19.9,12.2-28.1,20.4l-9.4-9.4
		C320.2,261,330.8,253.2,342.5,247.2z"/>
	<path id="XMLID_642_" class="st9" d="M486.7,270.1l-9.4,9.4c-8.2-8.2-17.7-15.1-28.1-20.4l6.1-11.9
		C466.9,253.2,477.5,260.9,486.7,270.1z"/>
	<path id="XMLID_641_" class="st9" d="M416.2,467.5l2.1,13.2c-6.3,1-12.8,1.5-19.4,1.5c-6.6,0-13.1-0.5-19.4-1.5l2.1-13.2
		c5.7,0.9,11.5,1.4,17.3,1.4C404.8,468.8,410.6,468.4,416.2,467.5z"/>
	<path id="XMLID_640_" class="st9" d="M232.2,442.8l-11.9,6.1c-9.4-18.4-16-38.5-19.3-59.7l13.2-2.1
		C217.2,406.9,223.4,425.6,232.2,442.8z"/>
	<path id="XMLID_639_" class="st9" d="M307.9,179.4l6.1,11.9c-17.6,9-33.5,20.6-47.4,34.4l-9.4-9.4C272,201.5,289.1,189,307.9,179.4
		z"/>
	<path id="XMLID_638_" class="st9" d="M348.5,456.8l-6.1,11.9c-11.7-6-22.3-13.7-31.5-22.9l9.4-9.4
		C328.6,444.5,338.1,451.4,348.5,456.8z"/>
	<path id="XMLID_637_" class="st9" d="M596.8,326.5l-13.2,2.1c-3.1-19.7-9.3-38.5-18.1-55.6l11.9-6.1
		C586.8,285.3,593.5,305.4,596.8,326.5z"/>
	<path id="XMLID_636_" class="st9" d="M531.1,490.2l9.4,9.4c-14.8,14.8-31.9,27.3-50.7,36.9l-6.1-11.9
		C501.3,515.7,517.3,504,531.1,490.2z"/>
	<path id="XMLID_635_" class="st9" d="M477.3,436.4l9.4,9.4c-9.2,9.2-19.8,16.9-31.5,22.9l-6.1-11.9
		C459.6,451.5,469.1,444.6,477.3,436.4z"/>
	<path id="XMLID_634_" class="st9" d="M508.4,375.3l13.2,2.1c-2.1,13.1-6.2,25.5-12,37l-11.9-6.1C502.9,398.1,506.6,387,508.4,375.3
		z"/>
	<path id="XMLID_633_" class="st9" d="M418.3,235.3l-2.1,13.2c-5.6-0.9-11.4-1.4-17.3-1.4c-5.9,0-11.7,0.5-17.3,1.4l-2.1-13.2
		c6.3-1,12.8-1.5,19.4-1.5S412,234.3,418.3,235.3z"/>
	<path id="XMLID_632_" class="st9" d="M430.2,160.1l-2.1,13.2c-9.5-1.5-19.3-2.3-29.2-2.3c-10,0-19.7,0.8-29.2,2.3l-2.1-13.2
		c10.2-1.6,20.7-2.4,31.3-2.4C409.5,157.6,420,158.4,430.2,160.1z"/>
	<path id="XMLID_631_" class="st9" d="M220.3,267l11.9,6.1c-8.8,17.2-15,35.9-18.1,55.7l-13.2-2.1
		C204.3,305.5,210.9,285.4,220.3,267z"/>
	<path id="XMLID_630_" class="st9" d="M428.1,542.7l2.1,13.2c-10.2,1.6-20.7,2.4-31.3,2.4c-10.7,0-21.1-0.8-31.4-2.4l2.1-13.2
		c9.5,1.5,19.3,2.3,29.3,2.3C408.8,545,418.6,544.2,428.1,542.7z"/>
	<path id="XMLID_629_" class="st9" d="M540.5,216.2l-9.4,9.4c-13.8-13.8-29.8-25.5-47.3-34.4l6.1-11.9
		C508.6,189,525.7,201.5,540.5,216.2z"/>
	<path id="XMLID_628_" class="st9" d="M583.6,387.2l13.2,2.1c-3.3,21.2-10,41.2-19.4,59.6l-11.9-6.1
		C574.3,425.7,580.5,407,583.6,387.2z"/>
	<path id="XMLID_627_" class="st9" d="M300,408.2l-11.9,6.1c-5.8-11.4-9.9-23.9-12-37l13.2-2.1C291.2,386.9,294.8,398,300,408.2z"/>
	<path id="XMLID_626_" class="st9" d="M521.6,338.4l-13.2,2.1c-1.8-11.7-5.5-22.8-10.7-33l11.9-6.1
		C515.4,312.9,519.5,325.3,521.6,338.4z"/>
</g>
<g id="Zahlen_5_">
	<g id="XMLID_624_">
		<rect id="XMLID_625_" x="375.4" y="107.5" class="st10" width="46.9" height="33.1"/>
	</g>
	<g id="XMLID_15_" class="st11">
		<path id="XMLID_190_" class="st2" d="M398.2,135.8v3.8h-21.4c0-1,0.1-1.9,0.5-2.8c0.5-1.5,1.4-2.9,2.6-4.3c1.2-1.4,2.9-3,5.2-4.9
			c3.5-2.9,5.9-5.2,7.1-6.9c1.2-1.7,1.9-3.3,1.9-4.8c0-1.6-0.6-2.9-1.7-4c-1.1-1.1-2.6-1.6-4.4-1.6c-1.9,0-3.4,0.6-4.6,1.7
			c-1.1,1.1-1.7,2.7-1.7,4.8l-4.1-0.4c0.3-3,1.3-5.4,3.2-7s4.3-2.4,7.4-2.4c3.1,0,5.6,0.9,7.4,2.6c1.8,1.7,2.7,3.9,2.7,6.4
			c0,1.3-0.3,2.6-0.8,3.8c-0.5,1.3-1.4,2.6-2.6,4c-1.2,1.4-3.3,3.3-6.1,5.7c-2.4,2-3.9,3.4-4.6,4.1c-0.7,0.7-1.2,1.4-1.7,2.2H398.2z
			"/>
		<path id="XMLID_192_" class="st2" d="M402.5,123.7c0-3.8,0.4-6.9,1.2-9.2c0.8-2.3,2-4.1,3.5-5.4c1.6-1.3,3.5-1.9,5.9-1.9
			c1.7,0,3.3,0.4,4.6,1c1.3,0.7,2.4,1.7,3.2,3c0.9,1.3,1.5,2.9,2,4.8c0.5,1.9,0.7,4.4,0.7,7.7c0,3.8-0.4,6.9-1.2,9.2
			c-0.8,2.3-1.9,4.1-3.5,5.4c-1.6,1.3-3.5,1.9-5.9,1.9c-3.1,0-5.6-1.1-7.4-3.4C403.5,134.2,402.5,129.8,402.5,123.7z M406.5,123.7
			c0,5.3,0.6,8.9,1.9,10.6c1.2,1.8,2.8,2.6,4.6,2.6c1.8,0,3.4-0.9,4.6-2.7c1.2-1.8,1.9-5.3,1.9-10.6c0-5.3-0.6-8.9-1.9-10.6
			c-1.2-1.8-2.8-2.6-4.6-2.6c-1.8,0-3.3,0.8-4.4,2.3C407.2,114.7,406.5,118.4,406.5,123.7z"/>
	</g>
	<g id="XMLID_616_">
		
			<rect id="XMLID_617_" x="302.8" y="118.5" transform="matrix(-0.9511 0.309 -0.309 -0.9511 678.3735 162.6739)" class="st10" width="46.9" height="33.1"/>
	</g>
	<g id="XMLID_16_" class="st11">
		<path id="XMLID_188_" class="st2" d="M319.3,144.9l3.9-1.6c0.9,1.8,2.1,3.1,3.5,3.7c1.4,0.6,2.8,0.7,4.4,0.2
			c1.8-0.6,3.1-1.8,4-3.6c0.8-1.8,0.9-3.8,0.1-6.1c-0.7-2.2-1.9-3.7-3.5-4.5c-1.6-0.9-3.4-1-5.4-0.3c-1.2,0.4-2.2,1-3,1.9
			c-0.8,0.9-1.3,1.8-1.6,2.9l-3.7,0.7l-2.2-16.8l15.3-5l1.2,3.6l-12.3,4l1,8.8c1.4-1.9,3.2-3.2,5.2-3.8c2.7-0.9,5.3-0.7,7.7,0.6
			c2.5,1.3,4.2,3.4,5.1,6.3c0.9,2.8,0.9,5.5-0.1,8c-1.2,3.1-3.5,5.3-6.9,6.4c-2.8,0.9-5.3,0.9-7.6-0.1
			C322.1,149.1,320.4,147.4,319.3,144.9z"/>
	</g>
	<g id="XMLID_611_">
		
			<rect id="XMLID_612_" x="237.6" y="152" transform="matrix(-0.809 0.5878 -0.5878 -0.809 571.317 151.4794)" class="st10" width="46.9" height="33.1"/>
	</g>
	<g id="XMLID_17_" class="st11">
		<path id="XMLID_184_" class="st2" d="M265.1,184.8l-3.2,2.3L247,166.7c-0.2,1.3-0.7,2.8-1.4,4.4c-0.7,1.7-1.4,3-2.2,4.1l-2.3-3.1
			c1.2-2.2,2-4.3,2.5-6.5c0.5-2.2,0.6-4,0.3-5.6l2.1-1.5L265.1,184.8z"/>
		<path id="XMLID_186_" class="st2" d="M288,163.5l2.2,3.1l-17.3,12.6c-0.6-0.8-1-1.6-1.2-2.5c-0.4-1.5-0.6-3.2-0.4-5
			c0.1-1.8,0.6-4.2,1.3-7c1.2-4.4,1.7-7.6,1.7-9.7c0-2.1-0.4-3.7-1.3-5c-0.9-1.3-2.2-2-3.7-2.2c-1.5-0.2-3.1,0.2-4.5,1.3
			c-1.5,1.1-2.4,2.5-2.7,4.1c-0.3,1.6,0.2,3.2,1.4,4.9l-3.6,2.1c-1.6-2.6-2.1-5.1-1.5-7.5c0.5-2.4,2.1-4.5,4.5-6.3
			c2.5-1.8,5-2.6,7.5-2.2c2.5,0.3,4.5,1.5,6,3.6c0.8,1,1.3,2.2,1.6,3.6c0.3,1.3,0.4,2.9,0.2,4.7c-0.2,1.8-0.7,4.6-1.6,8.2
			c-0.8,3-1.2,5-1.3,6c-0.1,1-0.2,1.9-0.1,2.7L288,163.5z"/>
	</g>
	<g id="XMLID_604_">
		
			<rect id="XMLID_605_" x="185.9" y="204" transform="matrix(-0.5878 0.809 -0.809 -0.5878 510.843 180.8311)" class="st10" width="46.9" height="33.1"/>
	</g>
	<g id="XMLID_18_" class="st11">
		<path id="XMLID_181_" class="st2" d="M210.5,232.7l2-3.3c1.6,0.8,3.1,1.1,4.3,0.8c1.2-0.3,2.2-1,3-2.1c0.7-1,1.1-2,1.2-3.1
			c0.1-1.1-0.1-2.1-0.5-3.1c-0.4-1-1.1-2.2-2.2-3.4c-1.1-1.3-2.2-2.4-3.6-3.3c-0.1-0.1-0.4-0.3-0.7-0.5c0.6,1.4,0.7,2.9,0.6,4.4
			c-0.2,1.6-0.7,3-1.7,4.3c-1.6,2.2-3.7,3.4-6.4,3.8c-2.7,0.4-5.3-0.4-7.9-2.3c-2.7-1.9-4.2-4.3-4.7-7c-0.5-2.7,0.1-5.3,1.8-7.7
			c1.2-1.7,2.8-2.9,4.8-3.7c1.9-0.7,4-0.9,6.3-0.4c2.2,0.5,5,1.9,8.2,4.3c3.3,2.4,5.7,4.7,7.2,6.9c1.5,2.2,2.2,4.3,2.2,6.5
			c0,2.2-0.7,4.2-2.1,6.2c-1.5,2-3.3,3.3-5.4,3.8C215,234.3,212.8,233.9,210.5,232.7z M208.6,211.1c-1.8-1.3-3.7-1.9-5.5-1.7
			c-1.8,0.2-3.2,1-4.2,2.4c-1,1.4-1.4,3.1-1,5c0.4,1.9,1.5,3.5,3.4,4.9c1.7,1.2,3.4,1.7,5.2,1.4c1.8-0.2,3.2-1.1,4.3-2.6
			c1.1-1.5,1.4-3.1,1.1-4.8S210.4,212.4,208.6,211.1z"/>
	</g>
	<g id="XMLID_598_">
		
			<rect id="XMLID_599_" x="152.9" y="269.2" transform="matrix(-0.309 0.9511 -0.9511 -0.309 502.6025 206.3667)" class="st10" width="46.9" height="33.1"/>
	</g>
	<g id="XMLID_19_" class="st11">
		<path id="XMLID_176_" class="st12" d="M189.3,296.7l-1.2,3.8l-24.1-7.8c0.6,1.2,1.1,2.7,1.4,4.4c0.4,1.8,0.6,3.3,0.7,4.6l-3.7-1.2
			c-0.3-2.4-0.9-4.7-1.8-6.7c-0.9-2-1.9-3.6-3-4.7l0.8-2.4L189.3,296.7z"/>
		<path id="XMLID_178_" class="st12" d="M196.4,274.9l-7.4-2.4l-4.3,13.4l-3.5-1.1l-15.4-20.5l1-3.1l20,6.5l1.4-4.2l3.5,1.1
			l-1.4,4.2l7.4,2.4L196.4,274.9z M185.5,271.3l-13.9-4.5l10.8,14.2L185.5,271.3z"/>
	</g>
	<g id="XMLID_590_">
		<rect id="XMLID_591_" x="148.1" y="334.5" class="st10" width="33.1" height="46.9"/>
	</g>
	<g id="XMLID_20_" class="st11">
		<path id="XMLID_172_" class="st12" d="M180.3,364.3v4h-25.3c0.9,1,1.8,2.2,2.7,3.8c0.9,1.6,1.6,2.9,2.1,4.2h-3.8
			c-1-2.2-2.3-4.2-3.8-5.8c-1.5-1.7-2.9-2.8-4.3-3.5v-2.6H180.3z"/>
		<path id="XMLID_174_" class="st12" d="M180.3,342.5v4h-25.3c0.9,1,1.8,2.2,2.7,3.8c0.9,1.6,1.6,2.9,2.1,4.2h-3.8
			c-1-2.2-2.3-4.2-3.8-5.8c-1.5-1.7-2.9-2.8-4.3-3.5v-2.6H180.3z"/>
	</g>
	<g id="XMLID_583_">
		
			<rect id="XMLID_584_" x="152.7" y="413.8" transform="matrix(-0.309 -0.9511 0.9511 -0.309 -178.7443 730.8616)" class="st10" width="46.9" height="33.1"/>
	</g>
	<g id="XMLID_21_" class="st11">
		<path id="XMLID_168_" class="st12" d="M177,426.4c0.1-1.8,0.5-3.2,1.3-4.3c0.8-1.1,2-1.9,3.5-2.4c2.2-0.7,4.4-0.5,6.4,0.6
			c2.1,1.1,3.5,3,4.4,5.7c0.9,2.7,0.8,5.1-0.2,7.3c-1,2.1-2.7,3.6-4.9,4.3c-1.4,0.5-2.8,0.5-4.1,0.1c-1.3-0.4-2.5-1.3-3.6-2.6
			c0,2.1-0.5,3.9-1.6,5.3c-1.1,1.4-2.5,2.5-4.4,3.1c-2.6,0.9-5.1,0.6-7.5-0.6c-2.4-1.3-4.1-3.4-5.1-6.5c-1-3-0.9-5.8,0.3-8.2
			c1.2-2.4,3.1-4.1,5.8-5c2-0.7,3.8-0.7,5.5-0.1C174.5,423.6,175.9,424.7,177,426.4z M168.5,427c-1.1,0.4-2,0.9-2.9,1.8
			c-0.8,0.8-1.4,1.9-1.6,3c-0.2,1.2-0.2,2.4,0.2,3.5c0.6,1.8,1.7,3.1,3.2,3.9c1.5,0.8,3.2,0.9,5,0.3c1.8-0.6,3.1-1.7,3.9-3.3
			c0.8-1.6,0.9-3.3,0.3-5.1c-0.6-1.8-1.6-3.1-3.2-3.8C171.9,426.5,170.3,426.4,168.5,427z M183.1,423.6c-1.5,0.5-2.5,1.3-3.1,2.6
			c-0.6,1.2-0.7,2.6-0.2,4.1c0.5,1.5,1.3,2.5,2.5,3.1c1.2,0.6,2.5,0.7,3.8,0.3c1.4-0.5,2.4-1.3,3-2.6c0.6-1.3,0.7-2.6,0.3-4
			c-0.5-1.4-1.3-2.5-2.6-3.1S184.4,423.2,183.1,423.6z"/>
	</g>
	<g id="XMLID_576_">
		
			<rect id="XMLID_577_" x="185.9" y="478.9" transform="matrix(-0.5878 -0.809 0.809 -0.5878 -68.3982 955.9468)" class="st10" width="46.9" height="33.1"/>
	</g>
	<g id="XMLID_22_" class="st11">
		<path id="XMLID_163_" class="st2" d="M192.9,499.4l-2.3-3.2l20.5-14.9c-1.3-0.2-2.8-0.7-4.4-1.4c-1.7-0.7-3-1.4-4.1-2.2l3.1-2.3
			c2.2,1.2,4.3,2,6.5,2.5c2.2,0.5,4,0.6,5.6,0.3l1.5,2.1L192.9,499.4z"/>
		<path id="XMLID_165_" class="st2" d="M230.8,510l-2.6-3c1.1-1.2,1.7-2.3,1.9-3.2c0.3-1.5,0-2.9-1-4.2c-0.7-1-1.7-1.7-2.8-2.1
			c-1.5-0.5-3.1-0.5-5,0c-1.8,0.4-4.1,1.6-6.7,3.5c1.7-0.1,3.3,0.2,4.7,0.9c1.4,0.7,2.5,1.7,3.4,2.9c1.6,2.1,2.1,4.5,1.6,7.2
			c-0.5,2.7-2,4.9-4.5,6.7c-1.6,1.2-3.4,2-5.4,2.3c-1.9,0.3-3.7,0.1-5.4-0.6c-1.6-0.7-3-1.8-4.2-3.4c-1.9-2.7-2.6-5.6-1.8-8.7
			c0.7-3.1,3.4-6.3,7.9-9.6c5.1-3.7,9.4-5.4,13.1-5.2c3.2,0.2,5.8,1.6,7.8,4.4c1.5,2.1,2.1,4.2,1.9,6.3
			C233.7,506.3,232.7,508.2,230.8,510z M210,505c-1.1,0.8-2,1.8-2.7,3c-0.7,1.2-1,2.4-0.9,3.7c0.1,1.2,0.5,2.3,1.1,3.2
			c1,1.4,2.4,2.1,4.2,2.3c1.8,0.2,3.6-0.4,5.5-1.8c1.8-1.3,2.9-2.8,3.2-4.6c0.3-1.7,0-3.3-1.1-4.8c-1.1-1.5-2.5-2.3-4.3-2.6
			C213.4,503.3,211.7,503.8,210,505z"/>
	</g>
	<g id="XMLID_568_">
		
			<rect id="XMLID_569_" x="237.4" y="530.8" transform="matrix(-0.809 -0.5878 0.5878 -0.809 150.1597 1143.4442)" class="st10" width="46.9" height="33.1"/>
	</g>
	<g id="XMLID_23_" class="st11">
		<path id="XMLID_161_" class="st2" d="M260.5,531.6l2.2-3.1l17,12.3l-1.8,2.5c-3,0.6-6.3,1.7-10.1,3.5c-3.8,1.8-7.2,3.9-10.4,6.3
			c-2.2,1.7-4.4,3.8-6.5,6.3l-3.3-2.4c1.5-2,3.7-4.2,6.6-6.6c2.9-2.4,6-4.4,9.5-6c3.4-1.7,6.6-2.8,9.6-3.5L260.5,531.6z"/>
	</g>
	<g id="XMLID_563_">
		
			<rect id="XMLID_564_" x="303.7" y="563.8" transform="matrix(-0.9511 -0.309 0.309 -0.9511 458.9647 1233.4351)" class="st10" width="46.9" height="33.1"/>
	</g>
	<g id="XMLID_24_" class="st11">
		<path id="XMLID_156_" class="st2" d="M316.4,593.3l-3.8-1.2l7.8-24.1c-1.2,0.6-2.7,1.1-4.4,1.4c-1.8,0.4-3.3,0.6-4.6,0.7l1.2-3.7
			c2.4-0.3,4.7-0.9,6.7-1.8c2-0.9,3.6-1.9,4.7-3l2.4,0.8L316.4,593.3z"/>
		<path id="XMLID_158_" class="st2" d="M328.9,589.5l3.7,0.8c-0.2,1.8-0.1,3.2,0.6,4.3c0.6,1.1,1.6,1.8,3,2.2
			c1.2,0.4,2.3,0.4,3.3,0.2c1-0.3,2-0.7,2.8-1.4c0.8-0.7,1.7-1.8,2.6-3.1c0.9-1.4,1.6-2.9,2.1-4.4c0.1-0.2,0.1-0.4,0.2-0.8
			c-1.1,1-2.5,1.6-4.1,1.9c-1.6,0.3-3.1,0.2-4.6-0.3c-2.5-0.8-4.4-2.5-5.6-4.9c-1.2-2.4-1.3-5.1-0.3-8.2c1-3.1,2.8-5.3,5.2-6.6
			c2.5-1.3,5.1-1.5,7.8-0.6c2,0.7,3.7,1.8,5,3.4c1.3,1.6,2.1,3.6,2.3,5.8c0.2,2.3-0.3,5.3-1.5,9.1c-1.3,3.9-2.7,6.9-4.3,9
			c-1.6,2.1-3.5,3.4-5.5,4.1c-2.1,0.7-4.3,0.6-6.5-0.1c-2.4-0.8-4.2-2.1-5.3-3.9C328.7,594.2,328.4,592,328.9,589.5z M348.8,581
			c0.7-2.2,0.7-4.1-0.1-5.7c-0.7-1.7-1.9-2.7-3.5-3.3c-1.7-0.5-3.4-0.3-5.1,0.6c-1.7,1-2.9,2.5-3.6,4.7c-0.6,2-0.6,3.7,0.2,5.4
			c0.8,1.6,2,2.7,3.8,3.3c1.8,0.6,3.4,0.4,4.9-0.4C347,584.6,348.1,583.1,348.8,581z"/>
	</g>
	<g id="XMLID_555_">
		<rect id="XMLID_556_" x="375.4" y="575.1" class="st10" width="46.9" height="33.1"/>
	</g>
	<g id="XMLID_25_" class="st11">
		<path id="XMLID_154_" class="st2" d="M389.2,598.6l4-0.5c0.5,2.3,1.2,3.9,2.3,4.9c1.1,1,2.4,1.5,4,1.5c1.9,0,3.4-0.6,4.7-1.9
			c1.3-1.3,1.9-2.9,1.9-4.8c0-1.8-0.6-3.3-1.8-4.5c-1.2-1.2-2.7-1.8-4.5-1.8c-0.8,0-1.7,0.1-2.8,0.4l0.4-3.5c0.3,0,0.5,0,0.6,0
			c1.7,0,3.2-0.4,4.6-1.3c1.4-0.9,2-2.2,2-4.1c0-1.5-0.5-2.7-1.5-3.6c-1-1-2.3-1.4-3.8-1.4c-1.5,0-2.8,0.5-3.9,1.5
			c-1,1-1.7,2.4-2,4.4l-4-0.7c0.5-2.7,1.6-4.7,3.3-6.2c1.7-1.5,3.9-2.2,6.4-2.2c1.8,0,3.4,0.4,4.9,1.1c1.5,0.8,2.6,1.8,3.4,3.1
			c0.8,1.3,1.2,2.7,1.2,4.2c0,1.4-0.4,2.7-1.1,3.8c-0.8,1.1-1.9,2.1-3.3,2.7c1.9,0.4,3.4,1.4,4.5,2.8c1.1,1.4,1.6,3.1,1.6,5.2
			c0,2.8-1,5.2-3.1,7.2c-2.1,2-4.7,2.9-7.8,2.9c-2.8,0-5.2-0.8-7.1-2.5C390.5,603.5,389.4,601.3,389.2,598.6z"/>
	</g>
	<g id="XMLID_550_">
		
			<rect id="XMLID_551_" x="447" y="563.8" transform="matrix(-0.9511 0.309 -0.309 -0.9511 1097.1984 986.9135)" class="st10" width="46.9" height="33.1"/>
	</g>
	<g id="XMLID_26_" class="st11">
		<path id="XMLID_150_" class="st2" d="M469.3,597.2l-3.8,1.2l-7.8-24.1c-0.6,1.2-1.5,2.4-2.7,3.8c-1.2,1.3-2.3,2.4-3.3,3.2
			l-1.2-3.7c1.8-1.7,3.2-3.5,4.4-5.4c1.1-1.9,1.8-3.7,2-5.2l2.4-0.8L469.3,597.2z"/>
		<path id="XMLID_152_" class="st2" d="M470.6,567.2l-1.2-3.6l19.9-6.5l1,2.9c-1.3,2.7-2.3,6.1-3.1,10.2c-0.8,4.1-1.1,8.1-1,12.1
			c0.1,2.8,0.5,5.8,1.3,8.9l-3.9,1.3c-0.7-2.4-1.2-5.5-1.4-9.2c-0.2-3.7,0-7.5,0.7-11.2c0.7-3.7,1.6-7,2.8-9.8L470.6,567.2z"/>
	</g>
	<g id="XMLID_543_">
		
			<rect id="XMLID_544_" x="513.1" y="530.8" transform="matrix(-0.809 0.5878 -0.5878 -0.809 1292.3552 674.7582)" class="st10" width="46.9" height="33.1"/>
	</g>
	<g id="XMLID_27_" class="st11">
		<path id="XMLID_148_" class="st2" d="M552.5,550.2l2.2,3.1l-17.3,12.6c-0.6-0.8-1-1.6-1.2-2.5c-0.4-1.5-0.6-3.2-0.4-5
			c0.1-1.8,0.6-4.2,1.3-7c1.2-4.4,1.7-7.7,1.7-9.7c0-2.1-0.4-3.7-1.3-5c-0.9-1.3-2.2-2-3.7-2.2c-1.5-0.2-3.1,0.2-4.5,1.3
			c-1.5,1.1-2.5,2.5-2.7,4.1c-0.3,1.6,0.2,3.2,1.4,4.9l-3.6,2.1c-1.6-2.6-2.1-5.1-1.5-7.5c0.5-2.4,2.1-4.5,4.5-6.3
			c2.5-1.8,5-2.6,7.5-2.2c2.5,0.3,4.5,1.5,6,3.6c0.8,1,1.3,2.2,1.6,3.6c0.3,1.3,0.4,2.9,0.2,4.8c-0.2,1.8-0.7,4.6-1.6,8.2
			c-0.8,3-1.2,5-1.3,6c-0.1,1-0.2,1.9-0.1,2.7L552.5,550.2z"/>
	</g>
	<g id="XMLID_538_">
		
			<rect id="XMLID_539_" x="564.9" y="478.9" transform="matrix(-0.5878 0.809 -0.809 -0.5878 1334.9279 310.7036)" class="st10" width="46.9" height="33.1"/>
	</g>
	<g id="XMLID_28_" class="st11">
		<path id="XMLID_144_" class="st2" d="M597.2,509.7l-2.3,3.2L574.3,498c0.2,1.3,0.2,2.9,0,4.7c-0.2,1.8-0.4,3.3-0.8,4.6l-3.1-2.3
			c0.5-2.4,0.6-4.7,0.4-6.9c-0.2-2.2-0.7-4-1.4-5.4l1.5-2.1L597.2,509.7z"/>
		<path id="XMLID_146_" class="st2" d="M596.3,496.4l2.2-3.6c1.8,0.9,3.5,1.3,5,1c1.5-0.3,2.7-1.1,3.6-2.4c1.1-1.5,1.5-3.3,1.1-5.2
			c-0.4-1.9-1.5-3.6-3.5-5c-1.8-1.3-3.7-1.9-5.5-1.6c-1.8,0.3-3.3,1.2-4.5,2.9c-0.8,1-1.2,2.1-1.3,3.3c-0.1,1.2,0,2.3,0.4,3.3
			l-2.6,2.7l-11.6-12.3l9.5-13l3.1,2.2l-7.6,10.5l6,6.5c0-2.4,0.7-4.4,2-6.1c1.7-2.3,3.9-3.6,6.6-4.1c2.7-0.4,5.3,0.3,7.8,2.1
			c2.4,1.7,3.9,3.9,4.6,6.5c0.9,3.2,0.3,6.3-1.8,9.2c-1.7,2.4-3.8,3.8-6.2,4.4C601.1,498.2,598.7,497.8,596.3,496.4z"/>
	</g>
	<g id="XMLID_531_">
		
			<rect id="XMLID_532_" x="598.8" y="414.1" transform="matrix(-0.309 0.9511 -0.9511 -0.309 1224.0745 -28.0318)" class="st10" width="46.9" height="33.1"/>
	</g>
	<g id="XMLID_29_" class="st11">
		<path id="XMLID_139_" class="st2" d="M635.2,441.6l-1.2,3.8l-24.1-7.8c0.6,1.2,1.1,2.7,1.4,4.4c0.4,1.8,0.6,3.3,0.7,4.6l-3.7-1.2
			c-0.3-2.4-0.9-4.7-1.8-6.7c-0.9-2-1.9-3.6-3-4.7l0.8-2.4L635.2,441.6z"/>
		<path id="XMLID_141_" class="st2" d="M623.1,427c-3.6-1.2-6.5-2.5-8.4-4c-2-1.5-3.3-3.1-4.1-5c-0.7-1.9-0.7-3.9,0-6.2
			c0.5-1.7,1.3-3,2.4-4c1.1-1,2.4-1.7,3.9-2.2c1.5-0.4,3.2-0.5,5.2-0.4c1.9,0.1,4.5,0.7,7.5,1.7c3.6,1.2,6.4,2.5,8.4,4
			c2,1.5,3.3,3.1,4.1,5c0.7,1.9,0.7,3.9,0,6.2c-1,3-2.8,5-5.5,6C633.4,429.2,628.9,428.9,623.1,427z M624.4,423.1
			c5.1,1.6,8.6,2.1,10.7,1.5s3.4-1.8,3.9-3.6c0.6-1.7,0.2-3.5-1.1-5.2c-1.3-1.7-4.5-3.4-9.5-5.1c-5.1-1.6-8.6-2.2-10.7-1.5
			c-2.1,0.6-3.4,1.8-3.9,3.6c-0.6,1.7-0.3,3.4,0.9,4.9C616.1,419.7,619.3,421.4,624.4,423.1z"/>
	</g>
	<g id="XMLID_523_">
		<rect id="XMLID_524_" x="616.7" y="334.9" class="st10" width="33.1" height="46.9"/>
	</g>
	<g id="XMLID_30_" class="st11">
		<path id="XMLID_136_" class="st12" d="M641.3,367.5l-0.4-3.8c1.8-0.3,3.1-0.9,3.9-1.9c0.8-0.9,1.2-2.1,1.2-3.5
			c0-1.2-0.3-2.3-0.8-3.2c-0.6-0.9-1.3-1.7-2.2-2.3c-0.9-0.6-2.2-1.1-3.8-1.5c-1.6-0.4-3.2-0.6-4.9-0.6c-0.2,0-0.4,0-0.8,0
			c1.3,0.8,2.3,1.9,3.1,3.3c0.8,1.4,1.2,2.9,1.2,4.5c0,2.7-1,4.9-2.9,6.8s-4.5,2.8-7.7,2.8c-3.3,0-5.9-1-7.9-2.9c-2-1.9-3-4.4-3-7.3
			c0-2.1,0.6-4,1.7-5.8c1.1-1.7,2.7-3.1,4.8-4c2.1-0.9,5.1-1.4,9.1-1.4c4.1,0,7.4,0.4,9.9,1.3c2.5,0.9,4.3,2.2,5.6,4
			c1.3,1.8,1.9,3.9,1.9,6.2c0,2.5-0.7,4.6-2.1,6.2C645.8,366.2,643.8,367.2,641.3,367.5z M627,351.2c-2.3,0-4.1,0.6-5.4,1.8
			c-1.3,1.2-2,2.7-2,4.4c0,1.8,0.7,3.3,2.2,4.6c1.4,1.3,3.3,2,5.6,2c2.1,0,3.7-0.6,5-1.9s1.9-2.8,1.9-4.6c0-1.8-0.6-3.4-1.9-4.5
			C631.1,351.8,629.3,351.2,627,351.2z"/>
	</g>
	<g id="XMLID_517_">
		
			<rect id="XMLID_518_" x="598.7" y="269" transform="matrix(-0.309 -0.9511 0.9511 -0.309 542.9078 965.4555)" class="st10" width="46.9" height="33.1"/>
	</g>
	<g id="XMLID_31_" class="st11">
		<path id="XMLID_132_" class="st12" d="M605.5,284.4l-1.2-3.8l24.1-7.8c-1.2-0.6-2.4-1.5-3.8-2.7c-1.3-1.2-2.4-2.3-3.2-3.3l3.7-1.2
			c1.7,1.8,3.5,3.3,5.4,4.4c1.9,1.1,3.7,1.8,5.2,2l0.8,2.4L605.5,284.4z"/>
		<path id="XMLID_134_" class="st12" d="M616.8,291.4l1.7,3.6c-2,1.1-3.3,2.4-3.9,3.7c-0.6,1.4-0.7,2.8-0.2,4.3
			c0.6,1.8,1.7,3.1,3.3,3.9c1.6,0.8,3.4,0.9,5.2,0.4c1.7-0.6,3-1.6,3.7-3.1c0.8-1.5,0.9-3.1,0.3-4.9c-0.2-0.7-0.7-1.6-1.3-2.5
			l3.5-0.7c0.1,0.3,0.1,0.5,0.2,0.6c0.5,1.6,1.4,2.9,2.7,3.9c1.3,1,2.8,1.2,4.5,0.7c1.4-0.5,2.4-1.3,3-2.5c0.6-1.2,0.7-2.6,0.2-4.1
			c-0.5-1.5-1.3-2.5-2.6-3.2c-1.2-0.7-2.8-0.9-4.8-0.5l-0.6-4c2.7-0.4,5,0.1,6.9,1.2c1.9,1.2,3.3,3,4.1,5.4c0.5,1.7,0.7,3.3,0.4,5
			c-0.3,1.6-0.9,3.1-1.9,4.2c-1,1.2-2.2,2-3.6,2.4c-1.3,0.4-2.7,0.5-4,0.1c-1.3-0.4-2.5-1.1-3.6-2.3c0.2,2-0.2,3.7-1.2,5.1
			c-1,1.4-2.5,2.5-4.5,3.1c-2.7,0.9-5.3,0.6-7.8-0.7c-2.5-1.4-4.2-3.5-5.2-6.5c-0.9-2.7-0.8-5.2,0.2-7.5
			C612.5,294.2,614.3,292.5,616.8,291.4z"/>
	</g>
	<g id="XMLID_510_">
		
			<rect id="XMLID_511_" x="564.5" y="203.2" transform="matrix(-0.5878 -0.809 0.809 -0.5878 755.7378 824.5999)" class="st10" width="46.9" height="33.1"/>
	</g>
	<g id="XMLID_32_" class="st11">
		<path id="XMLID_129_" class="st12" d="M577.1,231.4l6.3-4.6l-8.3-11.4l2.9-2.1l25.7-0.4l1.9,2.6l-17,12.3l2.6,3.5l-2.9,2.1
			l-2.6-3.5l-6.3,4.6L577.1,231.4z M586.3,224.7l11.8-8.6l-17.8,0.4L586.3,224.7z"/>
	</g>
	<g id="XMLID_504_">
		
			<rect id="XMLID_505_" x="512.4" y="151.9" transform="matrix(-0.809 -0.5878 0.5878 -0.809 870.4682 619.6108)" class="st10" width="46.9" height="33.1"/>
	</g>
	<g id="XMLID_33_" class="st11">
		<path id="XMLID_123_" class="st2" d="M521.5,177.3l-3.2-2.3l14.9-20.5c-1.3,0.2-2.9,0.2-4.7,0c-1.8-0.2-3.3-0.4-4.6-0.8l2.3-3.1
			c2.4,0.5,4.7,0.6,6.9,0.4c2.2-0.2,4-0.7,5.4-1.4l2.1,1.5L521.5,177.3z"/>
		<path id="XMLID_125_" class="st2" d="M545,172.6c-1-1.5-1.5-2.9-1.4-4.2c0-1.4,0.5-2.7,1.4-4c1.4-1.9,3.2-3,5.5-3.3
			c2.3-0.3,4.6,0.4,6.9,2c2.3,1.7,3.6,3.7,4.1,6c0.4,2.3,0,4.5-1.4,6.4c-0.9,1.2-2,2-3.3,2.5c-1.3,0.4-2.8,0.4-4.4,0
			c1.2,1.7,1.8,3.4,1.8,5.2c0,1.8-0.6,3.5-1.8,5.1c-1.6,2.2-3.8,3.5-6.5,3.9c-2.7,0.4-5.3-0.4-7.9-2.3c-2.6-1.9-4.1-4.2-4.6-6.8
			c-0.5-2.7,0.1-5.2,1.8-7.5c1.2-1.7,2.7-2.8,4.4-3.3C541.3,171.8,543.1,171.9,545,172.6z M538.5,178.1c-0.7,0.9-1.1,2-1.3,3.1
			c-0.2,1.2,0,2.3,0.5,3.4c0.5,1.1,1.3,2,2.3,2.7c1.5,1.1,3.2,1.5,4.9,1.3c1.7-0.3,3.1-1.2,4.2-2.7c1.1-1.5,1.5-3.2,1.2-5
			c-0.3-1.8-1.2-3.2-2.8-4.3c-1.5-1.1-3.1-1.5-4.9-1.2C541,175.7,539.6,176.6,538.5,178.1z M548.4,166.7c-0.9,1.2-1.2,2.5-1,3.9
			c0.2,1.4,1,2.5,2.3,3.4c1.2,0.9,2.5,1.2,3.9,1c1.4-0.2,2.4-0.9,3.3-2c0.9-1.2,1.2-2.5,0.9-3.9c-0.2-1.4-1-2.5-2.2-3.4
			c-1.2-0.9-2.5-1.2-3.9-1C550.2,165,549.2,165.6,548.4,166.7z"/>
	</g>
	<g id="XMLID_495_">
		
			<rect id="XMLID_496_" x="448.1" y="118.1" transform="matrix(-0.9511 -0.309 0.309 -0.9511 878.373 408.3832)" class="st10" width="46.9" height="33.1"/>
	</g>
	<g id="XMLID_34_" class="st11">
		<path id="XMLID_59_" class="st2" d="M471.7,151.2l-3.8-1.2l7.8-24.1c-1.2,0.6-2.7,1.1-4.4,1.4c-1.8,0.4-3.3,0.6-4.6,0.7l1.2-3.7
			c2.4-0.3,4.7-0.9,6.7-1.8c2-0.9,3.6-1.9,4.7-3l2.4,0.8L471.7,151.2z"/>
	</g>
</g>
<polygon id="XMLID_14_" class="st0" points="129.2,273.1 304.3,267 495.9,266.9 645.2,270 667.9,268.3 658.9,301.5 329.8,297.8 
	111.3,301.5 "/>
<path id="XMLID_35_" class="st1" d="M747.6,292.1V466l-59.6-11.8l-103.8-20.6c-116.5-23.1-236.3-23.6-352.9-1.4l-118.2,22.5
	L53.3,466V292.1c0,0,19.9-2.1,58-4.6c92.5-5.9,292.5-13.9,578.2,1.2C708.5,289.8,727.9,290.9,747.6,292.1z"/>
<path id="XMLID_37_" class="st2" d="M65.6,447c0-48.4,0-96.7,0-145.1c12.3,0,24.6,0,36.9,0c12.5,0,21.7,3.1,27.7,9
	c6,5.9,8.9,14.6,8.8,26.5c-0.1,11.8-3.6,21-10.6,27.9c6.8,5.2,10.1,13.5,10,25.3c-0.1,11.8-3.2,21.2-9.3,28.4
	c-6.1,7.2-15.2,12.8-27.5,16.9C89.6,439.4,77.6,443.1,65.6,447z M90,360.9c4.1-0.5,8.1-1,12.2-1.5c4.2-0.5,7.3-2.5,9.3-5.8
	c2-3.3,3-8.1,3-14.3c0-6.2-0.9-10.8-2.8-13.9c-1.9-3-5-4.5-9.3-4.3c-4.1,0.2-8.2,0.3-12.3,0.5C90.1,334.7,90,347.8,90,360.9z
	 M89.7,419.9c4-1,8.1-2,12.1-3c4.2-1,7.3-3.3,9.3-6.9c2-3.6,3-8.4,3-14.7c0-6.2-0.9-10.7-2.8-13.5c-1.9-2.8-5-3.9-9.2-3.2
	c-4.1,0.7-8.1,1.3-12.2,2C89.8,393.7,89.8,406.8,89.7,419.9z M163,386.6c0.2-16.9,0.4-33.9,0.6-50.8c0.1-11.3,3.3-19.9,9.4-25.5
	c6.1-5.7,15.5-8.3,27.9-8.3c12.5,0,21.7,2.6,27.7,7.6c6,5,8.9,12.4,8.8,22.3c-0.2,14.9-0.4,29.9-0.7,44.8c-0.1,10-3.3,17.8-9.5,23.7
	c-6.2,6-15.5,10.1-28,12.4c-12.5,2.4-21.7,1.6-27.6-2.7C165.8,405.8,162.9,397.9,163,386.6z M212.8,333c0.1-5.2-0.9-9-2.8-11.6
	c-1.9-2.5-5-3.8-9.3-3.7c-4.3,0.1-7.4,1.5-9.4,4.3c-2,2.8-3,6.8-3.1,12.2c-0.2,16.2-0.5,32.4-0.7,48.6c-0.1,5.4,0.9,9.3,2.8,11.7
	c1.9,2.4,5,3.2,9.3,2.5c4.3-0.7,7.4-2.5,9.4-5.4c2-2.9,3.1-6.9,3.1-12.1C212.4,364.1,212.6,348.5,212.8,333z M261.1,403.1
	c0.5-33.7,0.9-67.4,1.4-101.2c12.3,0,24.6,0,36.9,0c12.5,0,21.7,2.3,27.8,6.8c6,4.5,9,10.9,9,19.3c-0.1,8.4-1.6,14.6-4.6,18.4
	c-3,3.9-6.5,6.7-10.5,8.5c7,13.8,14,27.3,21,40.8c-8.3,0.4-16.6,1-24.9,1.6c-7-13.1-14-26.4-20.9-39.9c-3.3,0.2-6.6,0.4-9.9,0.6
	c-0.2,14-0.4,28.1-0.5,42.1C277.6,401.1,269.4,402.1,261.1,403.1z M286.6,344.1c4.1-0.2,8.2-0.4,12.4-0.5c4.3-0.2,7.4-1.4,9.4-3.8
	c2-2.4,3-5.8,3.1-10.4c0-4.6-0.9-8-2.9-10.2c-1.9-2.3-5.1-3.4-9.3-3.3c-4.1,0.1-8.2,0.1-12.3,0.2
	C286.9,325.4,286.7,334.7,286.6,344.1z M360.7,368.4c0.1-13.3,0.1-26.6,0.2-39.9c0-8.9,3.1-15.5,9.2-20c6.1-4.4,15.4-6.6,27.8-6.6
	c12.5,0,21.7,2.2,27.8,6.6c6.1,4.4,9.2,11.1,9.2,20c-8.2-0.1-16.5-0.1-24.7-0.2c0-4.4-1-7.7-3-9.9c-2-2.2-5.1-3.3-9.4-3.3
	c-4.3,0-7.4,1.1-9.4,3.3c-2,2.2-3,5.5-3,9.9c0,13.2,0,26.4-0.1,39.6c0,4.4,1,7.7,3,9.9c2,2.2,5.1,3.3,9.5,3.3c4.3,0,7.5-1.1,9.5-3.3
	c2-2.2,3-5.5,3-9.9c8.3,0.1,16.6,0.2,24.8,0.4c0,8.9-3,15.4-9.1,19.7c-6.1,4.3-15.5,6.3-28.1,6.3c-12.6,0-22-2-28.1-6.3
	C363.7,383.9,360.6,377.3,360.7,368.4z M460.2,396.2c-0.2-31.4-0.5-62.8-0.7-94.2c8.2,0,16.4,0,24.6,0c0.1,13.7,0.3,27.4,0.4,41.1
	c8.2,0.3,16.5,0.6,24.7,1c-0.2-14-0.4-28.1-0.5-42.1c8.2,0,16.4,0,24.6,0c0.5,33.7,0.9,67.4,1.4,101.2c-8.3-1.1-16.5-2-24.8-2.9
	c-0.2-14-0.4-28.1-0.5-42.1c-8.2-0.5-16.5-0.9-24.7-1.3c0.1,13.7,0.3,27.4,0.4,41.1C476.8,397.3,468.5,396.7,460.2,396.2z
	 M559.5,406.6c-0.5-34.9-1-69.8-1.5-104.6c24.6,0,49.2,0,73.9,0c0.1,5.6,0.1,11.3,0.2,16.9c-16.4-0.5-32.8-1-49.2-1.4
	c0.2,10.4,0.3,20.7,0.5,31.1c12.3,0.9,24.6,1.9,36.9,3.1c0.1,5.5,0.1,11,0.2,16.5c-12.3-1.5-24.6-2.8-36.9-4.1
	c0.2,10.4,0.3,20.7,0.5,31.1c16.4,2.5,32.8,5.3,49.1,8.4c0.1,5.6,0.1,11.3,0.2,16.9C608.8,415,584.2,410.3,559.5,406.6z
	 M657.7,426.2c-0.4-41.4-0.9-82.9-1.3-124.3c8.2,0,16.4,0,24.6,0c8.4,21.8,16.7,44.7,24.9,68.8c-0.1-22.9-0.2-45.9-0.3-68.8
	c8.2,0,16.4,0,24.6,0c0,48.4,0,96.7,0,145.1c-8-2.6-16-5.1-24.1-7.5c-8.1-25.3-16.4-49.4-24.7-72.2c0.2,21.8,0.3,43.5,0.5,65.3
	C673.9,430.4,665.8,428.3,657.7,426.2z"/>
<path id="XMLID_243_" class="st1" d="M765,280.6c-242.8-15.3-486.2-15.3-729,0c0-21,0-41.9,0-62.9c242.8-15.3,486.2-15.3,729,0
	C765,238.6,765,259.6,765,280.6z"/>
<g id="XMLID_58_">
	<path id="XMLID_64_" class="st2" d="M75.1,256.1c0.2,3.5-0.3,6.1-1.5,7.9c-1.2,1.8-3.1,2.8-5.7,3l-7.8,0.5l-2.2-36.6l7.8-0.5
		c2.6-0.2,4.7,0.6,6.1,2.3c1.4,1.7,2.2,4.2,2.4,7.7L75.1,256.1z M66,235.7l-2.6,0.2l1.6,26.1l2.6-0.2c0.9-0.1,1.5-0.5,1.9-1.4
		c0.4-0.9,0.5-2.2,0.4-4l-0.9-15.7c-0.1-1.7-0.4-3-0.9-3.9C67.6,236,66.9,235.6,66,235.7z"/>
	<path id="XMLID_67_" class="st2" d="M125.2,263.8l4.8-36.9l5.2-0.3l8.3,36.3l-5.2,0.3l-1.7-7.8l-5.2,0.3l-1,7.9L125.2,263.8z
		 M132.1,250.4l3.3-0.2l-2.2-10.4L132.1,250.4z"/>
	<path id="XMLID_70_" class="st2" d="M193,260.8l-1.3-36.6l7.8-0.3c2.6-0.1,4.6,0.7,6,2.4c1.4,1.7,2.1,4.2,2.2,7.5
		c0.1,3.3-0.1,5.7-0.7,7.1c-0.6,1.5-1.3,2.6-2.1,3.2l5.1,16l-5.2,0.2l-5.1-15.5l-2.1,0.1l0.6,15.7L193,260.8z M197.5,239.7l2.6-0.1
		c0.9,0,1.6-0.5,1.9-1.4c0.4-0.9,0.5-2.2,0.5-3.9c-0.1-1.7-0.3-3-0.8-3.9c-0.4-0.9-1.1-1.3-2-1.2l-2.6,0.1L197.5,239.7z"/>
	<path id="XMLID_73_" class="st2" d="M258.8,227.4l-0.1-5.2l15.7-0.4l0.1,5.2l-5.2,0.1l0.8,31.4l-5.2,0.1l-0.8-31.4L258.8,227.4z"/>
	<path id="XMLID_75_" class="st2" d="M326.1,257.5l-0.4-36.6l15.7-0.2l0.1,5.2l-10.5,0.1l0.1,10.5l7.8-0.1l0.1,5.2l-7.8,0.1
		l0.2,15.7L326.1,257.5z"/>
	<path id="XMLID_77_" class="st2" d="M392.6,257v-36.6h7.8c2.6,0,4.6,0.9,5.9,2.6c1.3,1.7,1.9,4.3,1.9,7.5c0,3.3-0.3,5.7-0.9,7.1
		c-0.6,1.5-1.4,2.5-2.2,3.1l4.5,16.2h-5.2l-4.5-15.7h-2.1V257H392.6z M397.8,236h2.6c0.9,0,1.6-0.4,2-1.3c0.4-0.9,0.6-2.2,0.6-3.9
		c0-1.7-0.2-3.1-0.6-3.9c-0.4-0.9-1.1-1.3-2-1.3h-2.6V236z"/>
	<path id="XMLID_80_" class="st2" d="M459.1,257.3l0.4-36.6l15.7,0.2l-0.1,5.2l-10.5-0.1l-0.1,10.5l7.8,0.1l-0.1,5.2l-7.8-0.1
		l-0.1,10.5l10.5,0.1l-0.1,5.2L459.1,257.3z"/>
	<path id="XMLID_82_" class="st2" d="M537,222l5.2,0.1l-0.6,26.1c-0.1,3.5-0.8,6.1-2.1,7.8c-1.3,1.7-3.3,2.5-6,2.5
		c-2.7-0.1-4.6-1-5.8-2.8c-1.2-1.8-1.8-4.4-1.7-7.9l0.6-26.1l5.2,0.1l-0.6,26.1c0,1.7,0.1,3.1,0.5,3.9c0.4,0.9,1.1,1.3,2,1.4
		c0.9,0,1.6-0.4,2-1.3s0.7-2.2,0.7-3.9L537,222z"/>
	<path id="XMLID_84_" class="st2" d="M592.1,260.3l1.3-36.6l5.2,0.2l4.6,18.5l0.7-18.3l5.2,0.2l-1.3,36.6l-5.2-0.2l-4.6-18.5
		l-0.7,18.3L592.1,260.3z"/>
	<path id="XMLID_86_" class="st2" d="M674.8,253.3c-0.2,3.5-0.9,6.1-2.3,7.7c-1.4,1.7-3.4,2.5-6,2.3l-7.8-0.4l1.8-36.6l7.8,0.4
		c2.6,0.1,4.6,1.1,5.8,2.9c1.2,1.8,1.7,4.4,1.6,7.9L674.8,253.3z M668,232l-2.6-0.1l-1.3,26.1l2.6,0.1c0.9,0,1.6-0.4,2-1.2
		c0.5-0.9,0.7-2.1,0.8-3.9l0.8-15.7c0.1-1.7-0.1-3.1-0.4-3.9C669.5,232.5,668.9,232.1,668,232z"/>
	<path id="XMLID_89_" class="st2" d="M725.2,266.5l2.2-36.6l15.7,0.9l-0.3,5.2l-10.4-0.6l-0.6,10.4l7.8,0.5l-0.3,5.2l-7.8-0.5
		l-0.6,10.4l10.4,0.6l-0.3,5.2L725.2,266.5z"/>
</g>
<g id="XMLID_61_">
	<path id="XMLID_63_" class="st2" d="M327.4,657l2.8,0c0,0.9,0.1,1.6,0.4,2.1c0.2,0.5,0.6,0.7,1.1,0.7c0.5,0,0.8-0.2,1-0.7
		c0.2-0.5,0.3-1.2,0.3-2.1c0-0.9-1-2.1-2.8-3.4c-1.9-1.4-2.8-3-2.8-4.8c0-1.8,0.3-3.2,1-4.2c0.7-0.9,1.7-1.4,3.1-1.4
		c1.4,0,2.5,0.4,3.1,1.3c0.7,0.9,1.1,2.3,1.1,4.1l-2.8,0c0-0.9-0.1-1.6-0.4-2.1c-0.2-0.5-0.6-0.7-1.1-0.7c-0.5,0-0.8,0.2-1,0.7
		c-0.2,0.5-0.3,1.2-0.3,2.1c0,0.9,0.9,2,2.8,3.4c1.9,1.4,2.8,3,2.8,4.8c0,1.8-0.3,3.2-1,4.2c-0.7,0.9-1.7,1.4-3.1,1.4
		c-1.4,0-2.5-0.4-3.1-1.3C327.8,660.2,327.4,658.9,327.4,657z"/>
	<path id="XMLID_92_" class="st2" d="M343.4,662.4l0-2.8l1.4,0l-0.1-13.8l-1.4,0l0-2.8l5.5-0.1l0,2.8l-1.4,0l0.1,13.8l1.4,0l0,2.8
		L343.4,662.4z"/>
	<path id="XMLID_94_" class="st2" d="M356.5,662.2l-0.1-19.4l2.8,0l2.8,9.7l-0.1-9.7l2.8,0l0.1,19.4l-2.8,0l-2.8-9.7l0.1,9.7
		L356.5,662.2z"/>
	<path id="XMLID_96_" class="st2" d="M372.4,656.6l0-8.3c0-1.8,0.3-3.2,1-4.2c0.7-0.9,1.7-1.4,3.1-1.4c1.4,0,2.4,0.5,3.1,1.4
		c0.7,0.9,1,2.3,1,4.1l-2.8,0c0-0.9-0.1-1.6-0.3-2.1c-0.2-0.5-0.6-0.7-1.1-0.7c-0.5,0-0.8,0.2-1.1,0.7c-0.2,0.5-0.3,1.2-0.3,2.1
		l0,8.3c0,0.9,0.1,1.6,0.3,2.1c0.2,0.5,0.6,0.7,1.1,0.7c0.5,0,0.8-0.2,1-0.7c0.2-0.5,0.3-1.2,0.3-2.1l2.8,0c0,1.8-0.3,3.2-1,4.2
		c-0.7,0.9-1.7,1.4-3.1,1.4c-1.4,0-2.4-0.5-3.1-1.4C372.7,659.8,372.4,658.4,372.4,656.6z"/>
	<path id="XMLID_98_" class="st2" d="M388.3,662.1l0-19.4l8.3,0l0,2.8l-5.5,0l0,5.5l4.2,0l0,2.8l-4.2,0l0,5.5l5.5,0l0,2.8
		L388.3,662.1z"/>
	<path id="XMLID_100_" class="st2" d="M417.3,662.1l0-2.8l2.8,0l0-11.1l-2.8,0l0-2.8c0.9,0,1.6-0.2,2.1-0.7c0.5-0.5,0.7-1.2,0.7-2.1
		l2.8,0l-0.1,16.6l2.8,0l0,2.8L417.3,662.1z"/>
	<path id="XMLID_102_" class="st2" d="M441.7,648.4l0,6.9c0,2.3-0.4,4.1-1.1,5.2c-0.7,1.1-1.7,1.7-3.1,1.7c-1.4,0-2.4-0.5-3.1-1.4
		c-0.7-0.9-1-2.3-1-4.2l2.8,0c0,0.9,0.1,1.6,0.3,2.1c0.2,0.5,0.6,0.7,1,0.7c0.5,0,0.8-0.3,1.1-1c0.2-0.7,0.3-1.9,0.4-3.5
		c-0.5,0.3-0.9,0.4-1.4,0.4c-1.4,0-2.4-0.5-3.1-1.6c-0.7-1-1-2.6-1-4.7c0-2.3,0.4-3.9,1.1-4.8s1.7-1.4,3.1-1.4
		c1.4,0,2.4,0.5,3.1,1.4C441.3,645.1,441.7,646.5,441.7,648.4z M438.9,649c0-1.1-0.1-2-0.3-2.6s-0.6-0.9-1-0.9
		c-0.5,0-0.8,0.3-1.1,0.9c-0.2,0.6-0.3,1.4-0.4,2.6c0,1.2,0.1,2.1,0.3,2.6c0.2,0.6,0.6,0.9,1,0.9c0.5,0,0.8-0.3,1.1-0.9
		C438.8,651.1,438.9,650.2,438.9,649z"/>
	<path id="XMLID_105_" class="st2" d="M457.6,648.5l-0.1,6.9c0,2.3-0.4,4.1-1.1,5.2c-0.7,1.1-1.7,1.7-3.1,1.7
		c-1.4,0-2.4-0.5-3.1-1.4c-0.7-0.9-1-2.3-1-4.2l2.8,0c0,0.9,0.1,1.6,0.3,2.1c0.2,0.5,0.6,0.7,1,0.7c0.5,0,0.8-0.3,1.1-1
		c0.2-0.7,0.4-1.9,0.4-3.5c-0.5,0.3-0.9,0.4-1.4,0.4c-1.4,0-2.4-0.5-3.1-1.6c-0.7-1-1-2.6-1-4.7c0-2.3,0.4-3.9,1.1-4.8
		c0.7-0.9,1.7-1.4,3.1-1.4c1.4,0,2.4,0.5,3.1,1.4C457.3,645.3,457.6,646.7,457.6,648.5z M454.8,649.2c0-1.1-0.1-2-0.3-2.6
		c-0.2-0.6-0.6-0.9-1-0.9c-0.5,0-0.8,0.3-1.1,0.8c-0.2,0.6-0.3,1.4-0.4,2.6c0,1.2,0.1,2.1,0.3,2.6c0.2,0.6,0.6,0.9,1,0.9
		c0.5,0,0.8-0.3,1.1-0.8C454.7,651.2,454.8,650.3,454.8,649.2z"/>
	<path id="XMLID_108_" class="st2" d="M465.1,656.9l2.8,0c0,0.9,0.1,1.6,0.3,2.1c0.2,0.5,0.6,0.7,1,0.7c0.5,0,0.8-0.2,1.1-0.7
		c0.2-0.5,0.3-1.2,0.4-2.1c0-1.4-0.2-2.4-0.7-3.1c-0.5-0.7-1.1-1.1-2.1-1.1l0-2.8l2.5-4.1l-5.3-0.1l0-2.8l8.3,0.1l0,2.8l-2.5,4.3
		c1,0.5,1.6,1.3,2,2.4s0.5,2.6,0.4,4.4c0,1.8-0.4,3.2-1.1,4.1c-0.7,0.9-1.7,1.4-3.1,1.3c-1.4,0-2.4-0.5-3.1-1.4
		C465.4,660.1,465.1,658.8,465.1,656.9z"/>
</g>
</svg>
